# xmcd
#
# Track frame offsets:
#	150
#	5100
#	24965
#	46712
#	68231
#	69399
#	91501
#	111075
#	112935
#	138660
#	158553
#
# Disc length: 2391 seconds
#
# Revision: 0
# Processed by: cddbd v1.5.1PL0 Copyright (c) Steve Scherf et al.
# Submitted via: dBpowerAMP V4.0
#
DISCID=7f09550b
DTITLE=2Face Idibia - Face 2 Face
DYEAR=2005
DGENRE=
TTITLE0=Intro
TTITLE1=Nfana ibaga
TTITLE2=Ole ft. Freestyle
TTITLE3=Right here
TTITLE4=Holy
TTITLE5=U no holy pass
TTITLE6=African queen
TTITLE7=Police
TTITLE8=Keep on rockin'
TTITLE9=thank u lord
TTITLE10=Odi ya
EXTD=
EXTT0=
EXTT1=
EXTT2=
EXTT3=
EXTT4=
EXTT5=
EXTT6=
EXTT7=
EXTT8=
EXTT9=
EXTT10=
PLAYORDER=
